<svg aria-hidden="true" style="position: absolute; width: 0; height: 0; overflow: hidden;" version="1.1" xmlns="http://www.w3.org/2000/svg" xmlns:xlink="http://www.w3.org/1999/xlink">
<defs>
<symbol id="location" viewBox="0 0 32 32">
<path fill="currentColor"  d="M16 15c-1.657 0-3-1.343-3-3s1.343-3 3-3c1.657 0 3 1.343 3 3s-1.343 3-3 3v0zM16 7c-2.761 0-5 2.238-5 5s2.239 5 5 5c2.761 0 5-2.238 5-5s-2.239-5-5-5v0zM16 29c-1.663 0.009-10-12.819-10-17 0-5.522 4.477-10 10-10s10 4.478 10 10c0 4.125-8.363 17.009-10 17v0zM16 0c-6.627 0-12 5.373-12 12 0 5.018 10.005 20.011 12 20 1.964 0.011 12-15.050 12-20 0-6.627-5.373-12-12-12v0z"></path>
</symbol>
<symbol id="burger" viewBox="0 0 32 32">
<path fill="currentColor" d="M3.429 8c0-0.631 0.512-1.143 1.143-1.143h22.857c0.631 0 1.143 0.512 1.143 1.143s-0.512 1.143-1.143 1.143h-22.857c-0.631 0-1.143-0.512-1.143-1.143z"></path>
<path fill="currentColor" d="M3.429 16c0-0.631 0.512-1.143 1.143-1.143h22.857c0.631 0 1.143 0.512 1.143 1.143s-0.512 1.143-1.143 1.143h-22.857c-0.631 0-1.143-0.512-1.143-1.143z"></path>
<path fill="currentColor" d="M4.571 22.857c-0.631 0-1.143 0.512-1.143 1.143s0.512 1.143 1.143 1.143h22.857c0.631 0 1.143-0.512 1.143-1.143s-0.512-1.143-1.143-1.143h-22.857z"></path>
</symbol>
<symbol id="github" viewBox="0 0 32 32">
<path fill="currentColor" d="M5.433 3.992c0.078-1.373 0.406-1.971 1.347-2.45 1.012-0.516 2.609-0.276 4.488 0.675 0.809 0.41 0.892 0.418 2.31 0.236 1.885-0.242 4.312-0.241 6.052 0.002 1.316 0.184 1.402 0.175 2.213-0.236 2.667-1.35 4.772-1.262 5.535 0.232 0.381 0.746 0.451 2.681 0.156 4.278-0.164 0.885-0.146 0.995 0.248 1.576 2.773 4.086 0.775 10.71-3.977 13.182-0.364 0.189-0.67 0.306-0.92 0.402-0.767 0.293-1 0.382-0.718 1.729 0.136 0.648 0.299 2.26 0.363 3.582 0.116 2.389 0.114 2.406-0.305 2.893-0.57 0.663-1.393 0.674-1.95 0.027-0.363-0.422-0.399-0.622-0.399-2.252 0-2.408-0.264-4.009-0.888-5.381-0.742-1.632-0.192-2.241 1.504-2.606 2.358-0.507 4.199-1.962 5.226-4.129 0.976-2.060 1.123-4.906-0.641-6.637-0.502-0.596-0.537-1.136-0.178-2.765 0.134-0.609 0.246-1.394 0.249-1.745 0.005-0.555-0.045-0.638-0.386-0.638-0.216 0-1.039 0.314-1.83 0.697l-1.262 0.612c-0.115 0.056-0.243 0.077-0.37 0.062-3.21-0.368-6.26-0.374-9.486 0.001-0.127 0.015-0.256-0.007-0.371-0.062l-1.262-0.612c-0.791-0.384-1.615-0.698-1.83-0.698-0.498 0-0.506 0.368-0.052 2.554 0.277 1.335 0.464 1.632-0.338 2.7-1.202 1.6-1.503 3.587-0.858 5.675 0.813 2.631 2.803 4.408 5.6 5.001 1.687 0.357 2.127 0.824 1.483 2.758-0.507 1.522-0.827 1.914-1.564 1.914-0.991 0-1.612-0.859-1.27-1.757 0.15-0.396 0.106-0.438-0.823-0.777-2.835-1.033-5.003-3.35-5.994-6.404-0.766-2.361-0.429-5.433 0.8-7.29 0.418-0.632 0.425-0.686 0.23-1.896-0.111-0.685-0.17-1.788-0.133-2.451z"></path>
<path fill="currentColor" d="M4.443 21.261c-0.408-0.613-1.236-0.778-1.849-0.37s-0.778 1.236-0.37 1.849c0.302 0.452 0.662 0.824 0.969 1.13 0.056 0.057 0.111 0.111 0.165 0.164 0.257 0.255 0.483 0.48 0.711 0.747 0.503 0.591 1.006 1.387 1.291 2.813 0.127 0.636 0.584 0.978 0.837 1.128 0.275 0.162 0.574 0.258 0.821 0.32 0.505 0.127 1.118 0.193 1.7 0.232 0.639 0.042 1.331 0.056 1.949 0.060 0 0.736 0.597 1.332 1.333 1.332s1.333-0.597 1.333-1.333v-1.333c0-0.736-0.597-1.333-1.333-1.333-0.126 0-0.262 0-0.406 0.001-0.782 0.002-1.802 0.005-2.701-0.054-0.433-0.029-0.789-0.069-1.050-0.119-0.402-1.579-1.052-2.629-1.745-3.443-0.306-0.36-0.624-0.674-0.882-0.93-0.048-0.048-0.095-0.094-0.138-0.137-0.298-0.298-0.493-0.509-0.635-0.724z"></path>
</symbol>
<symbol id="linkedin" viewBox="0 0 32 32">
<path fill="currentColor" d="M29.105 0h-26.211c-1.599 0-2.895 1.296-2.895 2.895v26.211c0 1.599 1.296 2.895 2.895 2.895h26.211c1.599 0 2.895-1.296 2.895-2.895v-26.211c0-1.599-1.296-2.895-2.895-2.895zM9.902 27.631c0 0.465-0.377 0.842-0.842 0.842h-3.586c-0.465 0-0.842-0.377-0.842-0.842v-15.032c0-0.465 0.377-0.842 0.842-0.842h3.586c0.465 0 0.842 0.377 0.842 0.842v15.032zM7.267 10.34c-1.881 0-3.407-1.525-3.407-3.407s1.525-3.407 3.407-3.407 3.407 1.525 3.407 3.407-1.525 3.407-3.407 3.407zM28.642 27.699c0 0.428-0.347 0.775-0.775 0.775h-3.848c-0.428 0-0.775-0.347-0.775-0.775v-7.051c0-1.052 0.309-4.609-2.749-4.609-2.371 0-2.852 2.435-2.949 3.528v8.132c0 0.428-0.347 0.775-0.775 0.775h-3.722c-0.428 0-0.775-0.347-0.775-0.775v-15.167c0-0.428 0.347-0.775 0.775-0.775h3.722c0.428 0 0.775 0.347 0.775 0.775v1.311c0.879-1.32 2.186-2.338 4.969-2.338 6.161 0 6.126 5.756 6.126 8.919v7.275z"></path>
</symbol>
<symbol id="discord" viewBox="0 0 32 32">
<path fill="currentColor" d="M23.637 27.393s-0.987-1.179-1.81-2.194c3.592-1.014 4.963-3.236 4.963-3.236-1.124 0.74-2.194 1.261-3.153 1.618-1.371 0.576-2.687 0.932-3.976 1.179-2.632 0.494-5.045 0.356-7.102-0.027-1.563-0.302-2.907-0.713-4.031-1.179-0.631-0.247-1.316-0.548-2.002-0.932-0.082-0.055-0.165-0.082-0.247-0.137-0.055-0.027-0.082-0.055-0.11-0.055-0.494-0.274-0.768-0.466-0.768-0.466s1.316 2.166 4.799 3.208c-0.823 1.042-1.837 2.249-1.837 2.249-6.060-0.192-8.363-4.141-8.363-4.141 0-8.747 3.949-15.849 3.949-15.849 3.949-2.934 7.678-2.852 7.678-2.852l0.274 0.329c-4.936 1.399-7.184 3.565-7.184 3.565s0.603-0.329 1.618-0.768c2.934-1.289 5.265-1.618 6.224-1.728 0.165-0.027 0.302-0.055 0.466-0.055 1.673-0.219 3.565-0.274 5.539-0.055 2.605 0.302 5.402 1.069 8.254 2.605 0 0-2.166-2.057-6.828-3.455l0.384-0.439s3.757-0.082 7.678 2.852c0 0 3.949 7.102 3.949 15.849 0-0.027-2.303 3.921-8.363 4.113l-0 0zM20.895 14.698c-1.563 0-2.797 1.344-2.797 3.016s1.261 3.016 2.797 3.016c1.563 0 2.797-1.344 2.797-3.016s-1.261-3.016-2.797-3.016zM10.886 14.698c-1.563 0-2.797 1.344-2.797 3.016s1.261 3.016 2.797 3.016c1.563 0 2.797-1.344 2.797-3.016 0.027-1.673-1.234-3.016-2.797-3.016z"></path>
</symbol>
<symbol id="instagram" viewBox="0 0 32 32">
<path fill="currentColor" d="M10.666 16.010c-0.005-2.945 2.378-5.338 5.323-5.343s5.338 2.377 5.344 5.322c0.006 2.946-2.378 5.338-5.323 5.343-2.944 0.006-5.337-2.377-5.343-5.323zM7.785 16.015c0.009 4.538 3.694 8.208 8.231 8.199s8.209-3.693 8.201-8.231c-0.009-4.536-3.695-8.208-8.232-8.2-4.537 0.009-8.208 3.695-8.199 8.231zM22.604 7.447c0.002 1.060 0.864 1.918 1.923 1.916s1.918-0.863 1.916-1.923c-0.002-1.060-0.864-1.918-1.924-1.916s-1.918 0.864-1.916 1.923zM9.56 29.035c-1.56-0.068-2.407-0.327-2.971-0.544-0.748-0.289-1.281-0.636-1.842-1.193-0.56-0.559-0.908-1.091-1.2-1.837-0.219-0.564-0.483-1.411-0.556-2.97-0.079-1.686-0.097-2.192-0.105-6.465-0.008-4.271 0.007-4.777 0.081-6.465 0.067-1.559 0.328-2.407 0.544-2.971 0.289-0.749 0.635-1.281 1.193-1.842 0.559-0.561 1.091-0.908 1.838-1.2 0.564-0.22 1.41-0.482 2.969-0.556 1.687-0.080 2.193-0.097 6.464-0.105s4.778 0.007 6.466 0.081c1.559 0.068 2.407 0.326 2.97 0.544 0.748 0.289 1.281 0.634 1.842 1.193s0.909 1.090 1.201 1.838c0.22 0.563 0.482 1.41 0.556 2.968 0.080 1.687 0.099 2.193 0.106 6.465 0.008 4.272-0.007 4.778-0.081 6.465-0.068 1.56-0.327 2.407-0.544 2.973-0.289 0.747-0.635 1.28-1.194 1.842-0.559 0.559-1.091 0.908-1.838 1.2-0.563 0.22-1.41 0.482-2.968 0.556-1.687 0.079-2.193 0.097-6.465 0.105-4.271 0.008-4.777-0.008-6.464-0.081zM9.374 0.111c-1.702 0.080-2.865 0.353-3.881 0.751-1.052 0.41-1.943 0.96-2.83 1.85-0.888 0.891-1.433 1.784-1.84 2.837-0.394 1.019-0.661 2.182-0.736 3.886-0.075 1.707-0.092 2.251-0.083 6.596s0.027 4.89 0.109 6.597c0.081 1.702 0.353 2.864 0.751 3.881 0.411 1.052 0.96 1.943 1.851 2.831s1.784 1.432 2.838 1.84c1.018 0.393 2.181 0.661 3.884 0.736 1.707 0.075 2.251 0.092 6.595 0.083 4.346-0.008 4.891-0.027 6.597-0.108 1.702-0.081 2.864-0.354 3.881-0.751 1.052-0.412 1.943-0.96 2.831-1.851s1.432-1.784 1.839-2.838c0.394-1.018 0.662-2.181 0.736-3.883 0.075-1.708 0.092-2.253 0.084-6.597s-0.028-4.889-0.109-6.595c-0.081-1.703-0.354-2.865-0.751-3.882-0.411-1.052-0.959-1.942-1.85-2.83s-1.784-1.433-2.838-1.839c-1.018-0.394-2.181-0.663-3.884-0.736-1.707-0.076-2.251-0.092-6.597-0.084-4.344 0.008-4.889 0.027-6.596 0.109z"></path>
</symbol>
<symbol id="telegram" viewBox="0 0 32 32">
<path fill="currentColor" d="M29.528 4.193c-0.48-0.407-1.234-0.465-2.013-0.152h-0.001c-0.82 0.329-23.207 9.932-24.118 10.324-0.166 0.058-1.613 0.598-1.464 1.801 0.133 1.085 1.297 1.534 1.439 1.586l5.692 1.949c0.378 1.257 1.77 5.894 2.077 6.885 0.192 0.618 0.505 1.429 1.053 1.596 0.481 0.186 0.96 0.016 1.27-0.227l3.48-3.228 5.617 4.381 0.134 0.080c0.381 0.169 0.747 0.253 1.096 0.253 0.269 0 0.528-0.051 0.775-0.152 0.842-0.346 1.178-1.148 1.213-1.238l4.196-21.809c0.256-1.165-0.1-1.757-0.444-2.049zM14.080 20.48l-1.92 5.12-1.92-6.4 14.72-10.88-10.88 12.16z"></path>
</symbol>
<symbol id="cross" viewBox="0 0 32 32">
<path fill="currentColor" d="M9.326 9.342c-0.521 0.521-0.521 1.365 0 1.886l4.78 4.78-4.78 4.78c-0.521 0.521-0.521 1.365 0 1.886s1.365 0.521 1.886 0l4.78-4.78 4.78 4.78c0.521 0.521 1.365 0.521 1.886 0s0.521-1.365 0-1.886l-4.78-4.78 4.78-4.78c0.521-0.521 0.521-1.365 0-1.886s-1.365-0.521-1.886 0l-4.78 4.78-4.78-4.78c-0.521-0.521-1.365-0.521-1.886 0z"></path>
</symbol>
<symbol id="javascript" viewBox="0 0 32 32">
<path fill="#ffd600" style="fill: var(--color9, #ffd600)" d="M0 32v-32h32v32h-32z"></path>
<path fill="#000001" style="fill: var(--color10, #000001)" d="M20.923 23.953c0.615 0.999 1.284 1.956 2.7 1.956 1.189 0 1.813-0.591 1.813-1.409 0-0.979-0.645-1.326-1.954-1.896l-0.717-0.306c-2.070-0.878-3.447-1.979-3.447-4.303 0-2.142 1.64-3.772 4.203-3.772 1.825 0 3.136 0.632 4.082 2.287l-2.235 1.428c-0.492-0.878-1.023-1.224-1.847-1.224-0.841 0-1.373 0.531-1.373 1.224 0 0.857 0.533 1.204 1.764 1.734l0.717 0.306c2.44 1.039 3.816 2.1 3.816 4.486 0 2.571-2.030 3.98-4.756 3.98-2.666 0-4.18-1.338-5.022-2.994l2.256-1.498zM10.624 24.026c0.45 0.805 1.133 1.425 2.116 1.425 0.94 0 1.482-0.372 1.482-1.816v-9.412h2.963v9.868c0 2.993-1.736 4.355-4.271 4.355-2.291 0-3.944-1.552-4.618-2.994l2.328-1.425z"></path>
</symbol>
<symbol id="typescript" viewBox="0 0 33 32">
<path fill="#3178c6" style="fill: var(--color1, #3178c6)" d="M30.795 0h-29c-0.828 0-1.5 0.672-1.5 1.5v29c0 0.828 0.672 1.5 1.5 1.5h29c0.828 0 1.5-0.672 1.5-1.5v-29c0-0.828-0.672-1.5-1.5-1.5z"></path>
<path fill="#fff" style="fill: var(--color2, #fff)" d="M18.861 24.867v3.506c0.568 0.292 1.24 0.511 2.016 0.657s1.593 0.219 2.453 0.219c0.838 0 1.633-0.080 2.387-0.241s1.415-0.425 1.983-0.794c0.568-0.369 1.018-0.851 1.349-1.447s0.497-1.331 0.497-2.208c0-0.636-0.095-1.192-0.284-1.671s-0.462-0.904-0.82-1.277c-0.357-0.373-0.785-0.707-1.284-1.003s-1.061-0.575-1.688-0.838c-0.459-0.19-0.87-0.374-1.234-0.553s-0.674-0.362-0.929-0.548-0.452-0.384-0.59-0.592c-0.138-0.208-0.208-0.444-0.208-0.707 0-0.241 0.062-0.458 0.186-0.652s0.299-0.36 0.524-0.499c0.226-0.139 0.503-0.246 0.83-0.323s0.692-0.115 1.092-0.115c0.291 0 0.599 0.022 0.923 0.066s0.65 0.111 0.978 0.203c0.328 0.091 0.646 0.206 0.956 0.345s0.595 0.299 0.858 0.482v-3.276c-0.532-0.205-1.113-0.356-1.742-0.455s-1.353-0.148-2.169-0.148c-0.83 0-1.617 0.089-2.36 0.268s-1.397 0.458-1.961 0.838-1.011 0.864-1.338 1.452c-0.328 0.588-0.492 1.291-0.492 2.109 0 1.045 0.3 1.936 0.901 2.674s1.513 1.362 2.737 1.874c0.481 0.197 0.929 0.391 1.344 0.581s0.774 0.387 1.076 0.592 0.541 0.427 0.715 0.668c0.175 0.241 0.262 0.515 0.262 0.822 0 0.227-0.055 0.437-0.164 0.63s-0.275 0.361-0.497 0.504c-0.222 0.142-0.499 0.254-0.83 0.334s-0.719 0.12-1.163 0.12c-0.757 0-1.508-0.133-2.25-0.4s-1.431-0.666-2.065-1.2zM12.971 16.139h4.574v-2.889h-12.75v2.889h4.552v12.861h3.624v-12.861z"></path>
</symbol>
<symbol id="react" viewBox="0 0 35 32">
<path fill="#087ea4" style="fill: var(--color3, #087ea4)" d="M17.545 19.386c1.836 0 3.325-1.516 3.325-3.386s-1.488-3.386-3.325-3.386c-1.836 0-3.325 1.516-3.325 3.386s1.489 3.386 3.325 3.386z"></path>
<path fill="none" stroke="#087ea4" style="stroke: var(--color3, #087ea4)" stroke-linejoin="miter" stroke-linecap="butt" stroke-miterlimit="4" stroke-width="1.5" d="M17.545 23.619c9.181 0 16.623-3.411 16.623-7.619s-7.443-7.619-16.623-7.619-16.623 3.411-16.623 7.619c0 4.208 7.443 7.619 16.623 7.619z"></path>
<path fill="none" stroke="#087ea4" style="stroke: var(--color3, #087ea4)" stroke-linejoin="miter" stroke-linecap="butt" stroke-miterlimit="4" stroke-width="1.5" d="M11.067 19.809c4.59 8.098 11.212 12.957 14.79 10.853s2.757-10.374-1.833-18.472-11.212-12.957-14.79-10.853c-3.578 2.104-2.757 10.374 1.833 18.472z"></path>
<path fill="none" stroke="#087ea4" style="stroke: var(--color3, #087ea4)" stroke-linejoin="miter" stroke-linecap="butt" stroke-miterlimit="4" stroke-width="1.5" d="M11.067 12.19c-4.59 8.098-5.411 16.368-1.833 18.472s10.2-2.755 14.79-10.853c4.59-8.098 5.411-16.368 1.833-18.472s-10.2 2.755-14.79 10.853z"></path>
</symbol>
<symbol id="nodejs" viewBox="0 0 29 32">
<path fill="#5fa04e" style="fill: var(--color4, #5fa04e)" d="M14.55 32c-0.429 0-0.829-0.117-1.201-0.321l-3.804-2.303c-0.572-0.321-0.286-0.437-0.114-0.496 0.772-0.262 0.915-0.321 1.716-0.787 0.086-0.058 0.2-0.029 0.286 0.029l2.917 1.779c0.114 0.058 0.257 0.058 0.343 0l11.411-6.735c0.114-0.058 0.172-0.175 0.172-0.321v-13.442c0-0.146-0.057-0.262-0.172-0.321l-11.411-6.706c-0.114-0.058-0.257-0.058-0.343 0l-11.411 6.706c-0.114 0.058-0.172 0.204-0.172 0.321v13.442c0 0.117 0.057 0.262 0.172 0.321l3.117 1.837c1.687 0.875 2.745-0.146 2.745-1.166v-13.267c0-0.175 0.143-0.35 0.343-0.35h1.459c0.172 0 0.343 0.146 0.343 0.35v13.267c0 2.303-1.23 3.645-3.375 3.645-0.658 0-1.173 0-2.631-0.729l-3.003-1.749c-0.744-0.437-1.201-1.254-1.201-2.128v-13.442c0-0.875 0.458-1.691 1.201-2.128l11.411-6.735c0.715-0.408 1.687-0.408 2.402 0l11.411 6.735c0.744 0.437 1.201 1.254 1.201 2.128v13.442c0 0.875-0.458 1.691-1.201 2.128l-11.411 6.735c-0.343 0.146-0.772 0.262-1.201 0.262z"></path>
<path fill="#5fa04e" style="fill: var(--color4, #5fa04e)" d="M18.096 22.757c-5.005 0-6.034-2.333-6.034-4.315 0-0.175 0.143-0.35 0.343-0.35h1.487c0.172 0 0.315 0.117 0.315 0.292 0.229 1.545 0.887 2.303 3.918 2.303 2.402 0 3.432-0.554 3.432-1.866 0-0.758-0.286-1.312-4.032-1.691-3.117-0.321-5.062-1.020-5.062-3.557 0-2.362 1.945-3.761 5.205-3.761 3.661 0 5.462 1.283 5.691 4.082 0 0.088-0.029 0.175-0.086 0.262-0.057 0.058-0.143 0.117-0.229 0.117h-1.516c-0.143 0-0.286-0.117-0.315-0.262-0.343-1.604-1.23-2.128-3.575-2.128-2.631 0-2.946 0.933-2.946 1.633 0 0.846 0.372 1.108 3.918 1.575 3.518 0.467 5.176 1.137 5.176 3.645 0 2.566-2.088 4.024-5.691 4.024z"></path>
</symbol>
<symbol id="express" viewBox="0 0 33 32">
<path fill="#f9fafb" style="fill: var(--color5, #f9fafb)" d="M32.25 24.795c-1.164 0.296-1.884 0.013-2.53-0.957l-4.594-6.356-0.664-0.88-5.365 7.257c-0.613 0.873-1.256 1.253-2.4 0.944l6.87-9.222-6.396-8.33c1.1-0.214 1.86-0.105 2.535 0.88l4.765 6.435 4.8-6.4c0.615-0.873 1.276-1.205 2.38-0.883l-2.48 3.288-3.36 4.375c-0.4 0.5-0.345 0.842 0.023 1.325l6.416 8.524zM0.258 15.427l0.562-2.764c1.53-5.47 7.8-7.743 12.124-4.363 2.527 1.988 3.155 4.8 3.030 7.95h-14.244c-0.214 5.67 3.867 9.092 9.070 7.346 1.825-0.613 2.9-2.042 3.438-3.83 0.273-0.896 0.725-1.036 1.567-0.78-0.43 2.236-1.4 4.104-3.45 5.273-3.063 1.75-7.435 1.184-9.735-1.248-1.37-1.411-1.936-3.199-2.19-5.111-0.040-0.316-0.12-0.617-0.18-0.92 0.005-0.517 0.008-1.035 0.008-1.552v-0.001zM1.756 15.047h12.872c-0.084-4.1-2.637-7.012-6.126-7.037-3.83-0.030-6.58 2.813-6.746 7.037z"></path>
</symbol>
<symbol id="mongodb" viewBox="0 0 16 32">
<path fill="#00684a" style="fill: var(--color6, #00684a)" d="M10.604 3.567c-1.349-1.593-2.511-3.212-2.748-3.548-0.025-0.025-0.063-0.025-0.087 0-0.237 0.336-1.399 1.954-2.748 3.548-11.579 14.702 1.824 24.624 1.824 24.624l0.112 0.075c0.1 1.531 0.35 3.735 0.35 3.735h0.999c0 0 0.25-2.191 0.35-3.735l0.112-0.087c0.012 0 13.415-9.909 1.836-24.612zM7.806 27.966c0 0-0.6-0.51-0.762-0.772v-0.025l0.724-16.009c0-0.050 0.075-0.050 0.075 0l0.724 16.009v0.025c-0.162 0.262-0.762 0.772-0.762 0.772z"></path>
</symbol>
<symbol id="sass" viewBox="0 0 33 32">
<path fill="#f06292" style="fill: var(--color7, #f06292)" d="M26.896 17.304c-1.025 0.005-1.913 0.251-2.657 0.619-0.272-0.543-0.548-1.021-0.594-1.377-0.054-0.415-0.117-0.663-0.051-1.157s0.351-1.194 0.347-1.247c-0.004-0.053-0.064-0.304-0.655-0.309s-1.097 0.114-1.157 0.27c-0.059 0.156-0.173 0.507-0.244 0.874-0.103 0.536-1.181 2.449-1.792 3.449-0.2-0.391-0.37-0.735-0.405-1.007-0.054-0.415-0.117-0.663-0.051-1.157s0.351-1.194 0.347-1.247c-0.004-0.053-0.064-0.304-0.655-0.309s-1.097 0.114-1.157 0.27-0.123 0.521-0.244 0.874c-0.121 0.353-1.553 3.543-1.928 4.37-0.191 0.421-0.357 0.76-0.475 0.991l-0.001-0.001c0 0-0.007 0.015-0.019 0.041-0.101 0.197-0.16 0.305-0.16 0.305s0.001 0.001 0.002 0.004c-0.080 0.145-0.165 0.279-0.207 0.279-0.029 0-0.089-0.385 0.013-0.913 0.213-1.107 0.725-2.832 0.72-2.892-0.003-0.031 0.095-0.331-0.334-0.489-0.417-0.153-0.566 0.102-0.604 0.103-0.037 0.001-0.064 0.090-0.064 0.090s0.465-1.941-0.887-1.941c-0.845 0-2.016 0.925-2.593 1.763-0.364 0.199-1.143 0.624-1.969 1.078-0.317 0.175-0.641 0.353-0.949 0.522-0.021-0.023-0.042-0.046-0.063-0.069-1.639-1.749-4.669-2.985-4.541-5.337 0.047-0.855 0.344-3.105 5.822-5.835 4.487-2.236 8.080-1.621 8.701-0.257 0.887 1.949-1.92 5.569-6.58 6.092-1.775 0.199-2.711-0.489-2.943-0.745-0.245-0.27-0.281-0.282-0.373-0.231-0.149 0.083-0.055 0.321 0 0.463 0.139 0.362 0.71 1.004 1.683 1.324 0.857 0.281 2.941 0.435 5.462-0.54 2.824-1.092 5.029-4.131 4.381-6.67-0.659-2.583-4.941-3.432-8.995-1.992-2.415 0.857-5.027 2.203-6.905 3.959-2.233 2.088-2.589 3.906-2.442 4.665 0.521 2.699 4.241 4.456 5.73 5.758-0.073 0.041-0.143 0.079-0.205 0.113-0.747 0.369-3.582 1.853-4.291 3.421-0.805 1.778 0.128 3.054 0.745 3.226 1.913 0.532 3.875-0.425 4.931-1.999s0.926-3.621 0.442-4.556c-0.006-0.011-0.013-0.023-0.019-0.035 0.193-0.114 0.389-0.23 0.584-0.345 0.38-0.223 0.753-0.431 1.077-0.607-0.181 0.496-0.314 1.091-0.383 1.951-0.081 1.009 0.333 2.314 0.874 2.827 0.239 0.226 0.525 0.231 0.707 0.231 0.63 0 0.917-0.524 1.234-1.144 0.388-0.76 0.733-1.645 0.733-1.645s-0.432 2.391 0.745 2.391c0.429 0 0.861-0.557 1.053-0.84 0.001 0.003 0.001 0.005 0.001 0.005s0.011-0.019 0.033-0.055c0.045-0.068 0.070-0.111 0.070-0.111s0.001-0.005 0.002-0.013c0.173-0.299 0.555-0.982 1.129-2.108 0.741-1.455 1.452-3.277 1.452-3.277s0.066 0.445 0.283 1.183c0.127 0.433 0.398 0.913 0.612 1.373-0.172 0.239-0.277 0.375-0.277 0.375s0.001 0.003 0.003 0.007c-0.137 0.183-0.291 0.379-0.453 0.571-0.585 0.697-1.282 1.493-1.375 1.722-0.11 0.271-0.084 0.469 0.129 0.63 0.155 0.117 0.431 0.135 0.72 0.116 0.526-0.035 0.895-0.166 1.078-0.245 0.285-0.101 0.616-0.259 0.927-0.487 0.574-0.422 0.92-1.025 0.887-1.825-0.019-0.441-0.159-0.877-0.337-1.289 0.052-0.075 0.104-0.151 0.157-0.227 0.905-1.323 1.607-2.776 1.607-2.776s0.066 0.445 0.283 1.183c0.109 0.373 0.326 0.78 0.521 1.179-0.851 0.691-1.378 1.495-1.561 2.021-0.339 0.975-0.073 1.416 0.424 1.517 0.225 0.045 0.544-0.058 0.783-0.159 0.298-0.099 0.656-0.263 0.991-0.509 0.574-0.422 1.126-1.013 1.093-1.812-0.015-0.364-0.114-0.725-0.248-1.072 0.721-0.301 1.655-0.467 2.844-0.329 2.551 0.298 3.051 1.891 2.956 2.557s-0.631 1.033-0.81 1.144c-0.179 0.111-0.233 0.149-0.219 0.231 0.022 0.119 0.105 0.115 0.257 0.089 0.21-0.035 1.339-0.542 1.388-1.773 0.061-1.564-1.436-3.28-4.087-3.266zM7.231 23.933c-0.845 0.922-2.025 1.27-2.532 0.977-0.547-0.317-0.33-1.674 0.707-2.653 0.632-0.596 1.448-1.145 1.989-1.483 0.123-0.074 0.304-0.183 0.524-0.315 0.037-0.021 0.057-0.032 0.057-0.032l-0.001-0.001c0.043-0.025 0.086-0.051 0.131-0.079 0.378 1.393 0.012 2.619-0.875 3.586zM13.388 19.749c-0.294 0.717-0.91 2.553-1.285 2.455-0.322-0.085-0.518-1.48-0.064-2.853 0.228-0.691 0.716-1.517 1.003-1.838 0.461-0.516 0.969-0.685 1.093-0.475 0.157 0.267-0.561 2.262-0.746 2.712zM18.474 22.175c-0.125 0.065-0.239 0.106-0.292 0.075-0.039-0.023 0.051-0.109 0.051-0.109s0.636-0.685 0.887-0.996c0.146-0.181 0.315-0.397 0.499-0.637 0.001 0.024 0.002 0.048 0.002 0.071-0.001 0.82-0.793 1.373-1.147 1.596zM22.392 21.282c-0.093-0.066-0.077-0.28 0.229-0.947 0.12-0.262 0.395-0.703 0.871-1.124 0.055 0.173 0.089 0.339 0.088 0.494-0.006 1.032-0.742 1.417-1.187 1.577z"></path>
</symbol>
<symbol id="tailwindcss" viewBox="0 0 53 32">
<path fill="#38bdf8" style="fill: var(--color8, #38bdf8)" d="M26.318 0c-6.982 0-11.345 3.491-13.091 10.473 2.618-3.491 5.673-4.8 9.164-3.927 1.992 0.497 3.415 1.943 4.991 3.542 2.567 2.606 5.538 5.621 12.027 5.621 6.982 0 11.345-3.491 13.091-10.473-2.618 3.491-5.673 4.8-9.164 3.927-1.992-0.497-3.415-1.943-4.991-3.542-2.567-2.606-5.538-5.621-12.027-5.621zM13.227 15.709c-6.982 0-11.345 3.491-13.091 10.473 2.618-3.491 5.673-4.8 9.164-3.927 1.992 0.498 3.415 1.943 4.991 3.542 2.567 2.606 5.538 5.621 12.027 5.621 6.982 0 11.345-3.491 13.091-10.473-2.618 3.491-5.673 4.8-9.164 3.927-1.992-0.497-3.415-1.943-4.991-3.542-2.567-2.606-5.538-5.621-12.027-5.621z"></path>
</symbol>
<symbol id="figma" viewBox="0 0 22 32">
<path fill="#1abcfe" style="fill: var(--color11, #1abcfe)" d="M11 16c0-1.415 0.562-2.771 1.562-3.771s2.357-1.562 3.771-1.562c1.414 0 2.771 0.562 3.771 1.562s1.562 2.357 1.562 3.771-0.562 2.771-1.562 3.771c-1 1-2.357 1.562-3.771 1.562s-2.771-0.562-3.771-1.562-1.562-2.357-1.562-3.771z"></path>
<path fill="#0acf83" style="fill: var(--color12, #0acf83)" d="M0.333 26.667c0-1.415 0.562-2.771 1.562-3.771s2.357-1.562 3.771-1.562h5.333v5.333c0 1.415-0.562 2.771-1.562 3.771s-2.357 1.562-3.771 1.562c-1.415 0-2.771-0.562-3.771-1.562s-1.562-2.357-1.562-3.771z"></path>
<path fill="#ff7262" style="fill: var(--color13, #ff7262)" d="M11 0v10.667h5.333c1.414 0 2.771-0.562 3.771-1.562s1.562-2.357 1.562-3.771c0-1.415-0.562-2.771-1.562-3.771s-2.357-1.562-3.771-1.562h-5.333z"></path>
<path fill="#f24e1e" style="fill: var(--color14, #f24e1e)" d="M0.333 5.333c0 1.414 0.562 2.771 1.562 3.771s2.357 1.562 3.771 1.562h5.333v-10.667h-5.333c-1.415 0-2.771 0.562-3.771 1.562s-1.562 2.357-1.562 3.771z"></path>
<path fill="#a259ff" style="fill: var(--color15, #a259ff)" d="M0.333 16c0 1.414 0.562 2.771 1.562 3.771s2.357 1.562 3.771 1.562h5.333v-10.667h-5.333c-1.415 0-2.771 0.562-3.771 1.562s-1.562 2.357-1.562 3.771z"></path>
</symbol>
<symbol id="git" viewBox="0 0 32 32">
<path fill="#f4511e" style="fill: var(--color1, #f4511e)" d="M28.133 14.733l-10.867-10.867c-0.333-0.333-0.8-0.533-1.267-0.533s-0.933 0.2-1.267 0.533l-2.333 2.333 2.733 2.733c0.267-0.133 0.533-0.2 0.867-0.2 1.133 0 2 0.867 2 2 0 0.333-0.067 0.6-0.2 0.867l2.667 2.667c0.267-0.133 0.533-0.2 0.867-0.2 1.133 0 2 0.867 2 2s-0.867 2-2 2c-1.133 0-2-0.867-2-2 0-0.333 0.067-0.6 0.2-0.867l-2.667-2.667c-0.067 0-0.133 0.067-0.2 0.067v6.933c0.8 0.267 1.333 1 1.333 1.867 0 1.133-0.867 2-2 2s-2-0.867-2-2c0-0.867 0.533-1.6 1.333-1.867v-7c-0.8-0.267-1.333-1-1.333-1.867 0-0.333 0.067-0.6 0.2-0.867l-2.733-2.733-7.6 7.667c-0.333 0.333-0.533 0.8-0.533 1.267s0.2 0.933 0.533 1.267l10.867 10.867c0.333 0.333 0.8 0.533 1.267 0.533s0.933-0.2 1.267-0.533l10.867-10.867c0.333-0.333 0.533-0.8 0.533-1.267s-0.2-0.933-0.533-1.267z"></path>
</symbol>
<symbol id="link" viewBox="0 0 32 32">
<path fill="none" stroke="#d1d5db" style="stroke: var(--color1, #d1d5db)" stroke-linejoin="round" stroke-linecap="round" stroke-miterlimit="4" stroke-width="2.6667" d="M24 17.333v8c0 0.707-0.281 1.385-0.781 1.886s-1.178 0.781-1.886 0.781h-14.667c-0.707 0-1.386-0.281-1.886-0.781s-0.781-1.178-0.781-1.886v-14.667c0-0.707 0.281-1.386 0.781-1.886s1.178-0.781 1.886-0.781h8"></path>
<path fill="none" stroke="#d1d5db" style="stroke: var(--color1, #d1d5db)" stroke-linejoin="round" stroke-linecap="round" stroke-miterlimit="4" stroke-width="2.6667" d="M20 4h8v8"></path>
<path fill="none" stroke="#d1d5db" style="stroke: var(--color1, #d1d5db)" stroke-linejoin="round" stroke-linecap="round" stroke-miterlimit="4" stroke-width="2.6667" d="M13.333 18.667l14.667-14.667"></path>
</symbol>
<symbol id="phone" viewBox="0 0 32 32">
<path fill="none" stroke="#d1d5db" style="stroke: var(--color1, #d1d5db)" stroke-linejoin="round" stroke-linecap="round" stroke-miterlimit="4" stroke-width="2.6667" d="M29.333 22.56v4c0.002 0.371-0.075 0.739-0.223 1.079s-0.367 0.646-0.641 0.897c-0.274 0.251-0.597 0.442-0.948 0.561s-0.725 0.163-1.094 0.13c-4.103-0.446-8.044-1.848-11.507-4.093-3.222-2.047-5.953-4.778-8-8-2.253-3.478-3.656-7.439-4.093-11.56-0.033-0.369 0.010-0.74 0.129-1.091s0.308-0.673 0.558-0.947c0.25-0.273 0.553-0.492 0.892-0.641s0.705-0.227 1.075-0.227h4c0.647-0.006 1.274 0.223 1.765 0.645s0.811 1.008 0.902 1.649c0.169 1.28 0.482 2.537 0.933 3.747 0.179 0.477 0.218 0.996 0.112 1.495s-0.353 0.956-0.712 1.319l-1.693 1.693c1.898 3.338 4.662 6.102 8 8l1.693-1.693c0.363-0.359 0.82-0.606 1.319-0.712s1.017-0.067 1.494 0.112c1.21 0.451 2.467 0.765 3.747 0.933 0.648 0.091 1.239 0.418 1.662 0.917s0.647 1.136 0.631 1.79z"></path>
</symbol>
<symbol id="copy" viewBox="0 0 33 32">
<path fill="none" stroke="#d1d5db" style="stroke: var(--color1, #d1d5db)" stroke-linejoin="round" stroke-linecap="round" stroke-miterlimit="4" stroke-width="2.6667" d="M27.333 10.667h-13.333c-1.473 0-2.667 1.194-2.667 2.667v13.333c0 1.473 1.194 2.667 2.667 2.667h13.333c1.473 0 2.667-1.194 2.667-2.667v-13.333c0-1.473-1.194-2.667-2.667-2.667z"></path>
<path fill="none" stroke="#d1d5db" style="stroke: var(--color1, #d1d5db)" stroke-linejoin="round" stroke-linecap="round" stroke-miterlimit="4" stroke-width="2.6667" d="M6 21.333c-1.467 0-2.667-1.2-2.667-2.667v-13.333c0-1.467 1.2-2.667 2.667-2.667h13.333c1.467 0 2.667 1.2 2.667 2.667"></path>
</symbol>
<symbol id="post" viewBox="0 0 33 32">
<path fill="none" stroke="#d1d5db" style="stroke: var(--color1, #d1d5db)" stroke-linejoin="round" stroke-linecap="round" stroke-miterlimit="4" stroke-width="2.6667" d="M27.333 5.333h-21.333c-1.473 0-2.667 1.194-2.667 2.667v16c0 1.473 1.194 2.667 2.667 2.667h21.333c1.473 0 2.667-1.194 2.667-2.667v-16c0-1.473-1.194-2.667-2.667-2.667z"></path>
<path fill="none" stroke="#d1d5db" style="stroke: var(--color1, #d1d5db)" stroke-linejoin="round" stroke-linecap="round" stroke-miterlimit="4" stroke-width="2.6667" d="M30 9.333l-11.96 7.6c-0.412 0.258-0.888 0.395-1.373 0.395s-0.962-0.137-1.373-0.395l-11.96-7.6"></path>
</symbol>
<symbol id="moon" viewBox="0 0 32 32">
<path fill="none" stroke="#d1d5db" style="stroke: var(--color1, #d1d5db)" stroke-linejoin="round" stroke-linecap="round" stroke-miterlimit="4" stroke-width="2.6667" d="M16 4c-1.591 1.591-2.485 3.75-2.485 6s0.894 4.409 2.485 6c1.591 1.591 3.75 2.485 6 2.485s4.409-0.894 6-2.485c0 2.373-0.704 4.693-2.022 6.667s-3.193 3.511-5.385 4.42c-2.193 0.908-4.606 1.146-6.933 0.683s-4.466-1.606-6.144-3.284c-1.678-1.678-2.821-3.817-3.284-6.144s-0.225-4.741 0.683-6.933c0.908-2.193 2.446-4.067 4.42-5.385s4.293-2.022 6.667-2.022z"></path>
<path fill="none" stroke="#d1d5db" style="stroke: var(--color1, #d1d5db)" stroke-linejoin="round" stroke-linecap="round" stroke-miterlimit="4" stroke-width="2.6667" d="M25.333 4v5.333"></path>
<path fill="none" stroke="#d1d5db" style="stroke: var(--color1, #d1d5db)" stroke-linejoin="round" stroke-linecap="round" stroke-miterlimit="4" stroke-width="2.6667" d="M28 6.667h-5.333"></path>
</symbol>
<symbol id="dot" viewBox="0 0 32 32">
<path fill="#10b981" style="fill: var(--color1, #10b981)" d="M16 0c8.837 0 16 7.163 16 16s-7.163 16-16 16c-8.837 0-16-7.163-16-16s7.163-16 16-16z"></path>
</symbol>
<symbol id="sun" viewBox="0 0 32 32">
<path fill="none" stroke="#4b5563" style="stroke: var(--color1, #4b5563)" stroke-linejoin="round" stroke-linecap="round" stroke-miterlimit="4" stroke-width="2.6667" d="M16 21.333c2.945 0 5.333-2.388 5.333-5.333s-2.388-5.333-5.333-5.333c-2.946 0-5.333 2.388-5.333 5.333s2.388 5.333 5.333 5.333z"></path>
<path fill="none" stroke="#4b5563" style="stroke: var(--color1, #4b5563)" stroke-linejoin="round" stroke-linecap="round" stroke-miterlimit="4" stroke-width="2.6667" d="M16 2.667v2.667"></path>
<path fill="none" stroke="#4b5563" style="stroke: var(--color1, #4b5563)" stroke-linejoin="round" stroke-linecap="round" stroke-miterlimit="4" stroke-width="2.6667" d="M16 26.667v2.667"></path>
<path fill="none" stroke="#4b5563" style="stroke: var(--color1, #4b5563)" stroke-linejoin="round" stroke-linecap="round" stroke-miterlimit="4" stroke-width="2.6667" d="M6.573 6.573l1.88 1.88"></path>
<path fill="none" stroke="#4b5563" style="stroke: var(--color1, #4b5563)" stroke-linejoin="round" stroke-linecap="round" stroke-miterlimit="4" stroke-width="2.6667" d="M23.547 23.547l1.88 1.88"></path>
<path fill="none" stroke="#4b5563" style="stroke: var(--color1, #4b5563)" stroke-linejoin="round" stroke-linecap="round" stroke-miterlimit="4" stroke-width="2.6667" d="M2.667 16h2.667"></path>
<path fill="none" stroke="#4b5563" style="stroke: var(--color1, #4b5563)" stroke-linejoin="round" stroke-linecap="round" stroke-miterlimit="4" stroke-width="2.6667" d="M26.667 16h2.667"></path>
<path fill="none" stroke="#4b5563" style="stroke: var(--color1, #4b5563)" stroke-linejoin="round" stroke-linecap="round" stroke-miterlimit="4" stroke-width="2.6667" d="M8.453 23.547l-1.88 1.88"></path>
<path fill="none" stroke="#4b5563" style="stroke: var(--color1, #4b5563)" stroke-linejoin="round" stroke-linecap="round" stroke-miterlimit="4" stroke-width="2.6667" d="M25.427 6.573l-1.88 1.88"></path>
</symbol>
</defs>
</svg>
