<svg aria-hidden="true" style="position: absolute; width: 0; height: 0; overflow: hidden;" version="1.1" xmlns="http://www.w3.org/2000/svg" xmlns:xlink="http://www.w3.org/1999/xlink">
<defs>
<symbol id="location" viewBox="0 0 32 32">
<path fill="currentColor"  d="M16 15c-1.657 0-3-1.343-3-3s1.343-3 3-3c1.657 0 3 1.343 3 3s-1.343 3-3 3v0zM16 7c-2.761 0-5 2.238-5 5s2.239 5 5 5c2.761 0 5-2.238 5-5s-2.239-5-5-5v0zM16 29c-1.663 0.009-10-12.819-10-17 0-5.522 4.477-10 10-10s10 4.478 10 10c0 4.125-8.363 17.009-10 17v0zM16 0c-6.627 0-12 5.373-12 12 0 5.018 10.005 20.011 12 20 1.964 0.011 12-15.050 12-20 0-6.627-5.373-12-12-12v0z"></path>
</symbol>
<symbol id="burger" viewBox="0 0 32 32">
<path fill="currentColor" d="M3.429 8c0-0.631 0.512-1.143 1.143-1.143h22.857c0.631 0 1.143 0.512 1.143 1.143s-0.512 1.143-1.143 1.143h-22.857c-0.631 0-1.143-0.512-1.143-1.143z"></path>
<path fill="currentColor" d="M3.429 16c0-0.631 0.512-1.143 1.143-1.143h22.857c0.631 0 1.143 0.512 1.143 1.143s-0.512 1.143-1.143 1.143h-22.857c-0.631 0-1.143-0.512-1.143-1.143z"></path>
<path fill="currentColor" d="M4.571 22.857c-0.631 0-1.143 0.512-1.143 1.143s0.512 1.143 1.143 1.143h22.857c0.631 0 1.143-0.512 1.143-1.143s-0.512-1.143-1.143-1.143h-22.857z"></path>
</symbol>
<symbol id="github" viewBox="0 0 32 32">
<path fill="currentColor" d="M5.433 3.992c0.078-1.373 0.406-1.971 1.347-2.45 1.012-0.516 2.609-0.276 4.488 0.675 0.809 0.41 0.892 0.418 2.31 0.236 1.885-0.242 4.312-0.241 6.052 0.002 1.316 0.184 1.402 0.175 2.213-0.236 2.667-1.35 4.772-1.262 5.535 0.232 0.381 0.746 0.451 2.681 0.156 4.278-0.164 0.885-0.146 0.995 0.248 1.576 2.773 4.086 0.775 10.71-3.977 13.182-0.364 0.189-0.67 0.306-0.92 0.402-0.767 0.293-1 0.382-0.718 1.729 0.136 0.648 0.299 2.26 0.363 3.582 0.116 2.389 0.114 2.406-0.305 2.893-0.57 0.663-1.393 0.674-1.95 0.027-0.363-0.422-0.399-0.622-0.399-2.252 0-2.408-0.264-4.009-0.888-5.381-0.742-1.632-0.192-2.241 1.504-2.606 2.358-0.507 4.199-1.962 5.226-4.129 0.976-2.060 1.123-4.906-0.641-6.637-0.502-0.596-0.537-1.136-0.178-2.765 0.134-0.609 0.246-1.394 0.249-1.745 0.005-0.555-0.045-0.638-0.386-0.638-0.216 0-1.039 0.314-1.83 0.697l-1.262 0.612c-0.115 0.056-0.243 0.077-0.37 0.062-3.21-0.368-6.26-0.374-9.486 0.001-0.127 0.015-0.256-0.007-0.371-0.062l-1.262-0.612c-0.791-0.384-1.615-0.698-1.83-0.698-0.498 0-0.506 0.368-0.052 2.554 0.277 1.335 0.464 1.632-0.338 2.7-1.202 1.6-1.503 3.587-0.858 5.675 0.813 2.631 2.803 4.408 5.6 5.001 1.687 0.357 2.127 0.824 1.483 2.758-0.507 1.522-0.827 1.914-1.564 1.914-0.991 0-1.612-0.859-1.27-1.757 0.15-0.396 0.106-0.438-0.823-0.777-2.835-1.033-5.003-3.35-5.994-6.404-0.766-2.361-0.429-5.433 0.8-7.29 0.418-0.632 0.425-0.686 0.23-1.896-0.111-0.685-0.17-1.788-0.133-2.451z"></path>
<path fill="currentColor" d="M4.443 21.261c-0.408-0.613-1.236-0.778-1.849-0.37s-0.778 1.236-0.37 1.849c0.302 0.452 0.662 0.824 0.969 1.13 0.056 0.057 0.111 0.111 0.165 0.164 0.257 0.255 0.483 0.48 0.711 0.747 0.503 0.591 1.006 1.387 1.291 2.813 0.127 0.636 0.584 0.978 0.837 1.128 0.275 0.162 0.574 0.258 0.821 0.32 0.505 0.127 1.118 0.193 1.7 0.232 0.639 0.042 1.331 0.056 1.949 0.060 0 0.736 0.597 1.332 1.333 1.332s1.333-0.597 1.333-1.333v-1.333c0-0.736-0.597-1.333-1.333-1.333-0.126 0-0.262 0-0.406 0.001-0.782 0.002-1.802 0.005-2.701-0.054-0.433-0.029-0.789-0.069-1.050-0.119-0.402-1.579-1.052-2.629-1.745-3.443-0.306-0.36-0.624-0.674-0.882-0.93-0.048-0.048-0.095-0.094-0.138-0.137-0.298-0.298-0.493-0.509-0.635-0.724z"></path>
</symbol>
<symbol id="linkedin" viewBox="0 0 32 32">
<path fill="currentColor" d="M29.105 0h-26.211c-1.599 0-2.895 1.296-2.895 2.895v26.211c0 1.599 1.296 2.895 2.895 2.895h26.211c1.599 0 2.895-1.296 2.895-2.895v-26.211c0-1.599-1.296-2.895-2.895-2.895zM9.902 27.631c0 0.465-0.377 0.842-0.842 0.842h-3.586c-0.465 0-0.842-0.377-0.842-0.842v-15.032c0-0.465 0.377-0.842 0.842-0.842h3.586c0.465 0 0.842 0.377 0.842 0.842v15.032zM7.267 10.34c-1.881 0-3.407-1.525-3.407-3.407s1.525-3.407 3.407-3.407 3.407 1.525 3.407 3.407-1.525 3.407-3.407 3.407zM28.642 27.699c0 0.428-0.347 0.775-0.775 0.775h-3.848c-0.428 0-0.775-0.347-0.775-0.775v-7.051c0-1.052 0.309-4.609-2.749-4.609-2.371 0-2.852 2.435-2.949 3.528v8.132c0 0.428-0.347 0.775-0.775 0.775h-3.722c-0.428 0-0.775-0.347-0.775-0.775v-15.167c0-0.428 0.347-0.775 0.775-0.775h3.722c0.428 0 0.775 0.347 0.775 0.775v1.311c0.879-1.32 2.186-2.338 4.969-2.338 6.161 0 6.126 5.756 6.126 8.919v7.275z"></path>
</symbol>
<symbol id="discord" viewBox="0 0 32 32">
<path fill="currentColor" d="M23.637 27.393s-0.987-1.179-1.81-2.194c3.592-1.014 4.963-3.236 4.963-3.236-1.124 0.74-2.194 1.261-3.153 1.618-1.371 0.576-2.687 0.932-3.976 1.179-2.632 0.494-5.045 0.356-7.102-0.027-1.563-0.302-2.907-0.713-4.031-1.179-0.631-0.247-1.316-0.548-2.002-0.932-0.082-0.055-0.165-0.082-0.247-0.137-0.055-0.027-0.082-0.055-0.11-0.055-0.494-0.274-0.768-0.466-0.768-0.466s1.316 2.166 4.799 3.208c-0.823 1.042-1.837 2.249-1.837 2.249-6.060-0.192-8.363-4.141-8.363-4.141 0-8.747 3.949-15.849 3.949-15.849 3.949-2.934 7.678-2.852 7.678-2.852l0.274 0.329c-4.936 1.399-7.184 3.565-7.184 3.565s0.603-0.329 1.618-0.768c2.934-1.289 5.265-1.618 6.224-1.728 0.165-0.027 0.302-0.055 0.466-0.055 1.673-0.219 3.565-0.274 5.539-0.055 2.605 0.302 5.402 1.069 8.254 2.605 0 0-2.166-2.057-6.828-3.455l0.384-0.439s3.757-0.082 7.678 2.852c0 0 3.949 7.102 3.949 15.849 0-0.027-2.303 3.921-8.363 4.113l-0 0zM20.895 14.698c-1.563 0-2.797 1.344-2.797 3.016s1.261 3.016 2.797 3.016c1.563 0 2.797-1.344 2.797-3.016s-1.261-3.016-2.797-3.016zM10.886 14.698c-1.563 0-2.797 1.344-2.797 3.016s1.261 3.016 2.797 3.016c1.563 0 2.797-1.344 2.797-3.016 0.027-1.673-1.234-3.016-2.797-3.016z"></path>
</symbol>
<symbol id="instagram" viewBox="0 0 32 32">
<path fill="currentColor" d="M10.666 16.010c-0.005-2.945 2.378-5.338 5.323-5.343s5.338 2.377 5.344 5.322c0.006 2.946-2.378 5.338-5.323 5.343-2.944 0.006-5.337-2.377-5.343-5.323zM7.785 16.015c0.009 4.538 3.694 8.208 8.231 8.199s8.209-3.693 8.201-8.231c-0.009-4.536-3.695-8.208-8.232-8.2-4.537 0.009-8.208 3.695-8.199 8.231zM22.604 7.447c0.002 1.060 0.864 1.918 1.923 1.916s1.918-0.863 1.916-1.923c-0.002-1.060-0.864-1.918-1.924-1.916s-1.918 0.864-1.916 1.923zM9.56 29.035c-1.56-0.068-2.407-0.327-2.971-0.544-0.748-0.289-1.281-0.636-1.842-1.193-0.56-0.559-0.908-1.091-1.2-1.837-0.219-0.564-0.483-1.411-0.556-2.97-0.079-1.686-0.097-2.192-0.105-6.465-0.008-4.271 0.007-4.777 0.081-6.465 0.067-1.559 0.328-2.407 0.544-2.971 0.289-0.749 0.635-1.281 1.193-1.842 0.559-0.561 1.091-0.908 1.838-1.2 0.564-0.22 1.41-0.482 2.969-0.556 1.687-0.080 2.193-0.097 6.464-0.105s4.778 0.007 6.466 0.081c1.559 0.068 2.407 0.326 2.97 0.544 0.748 0.289 1.281 0.634 1.842 1.193s0.909 1.090 1.201 1.838c0.22 0.563 0.482 1.41 0.556 2.968 0.080 1.687 0.099 2.193 0.106 6.465 0.008 4.272-0.007 4.778-0.081 6.465-0.068 1.56-0.327 2.407-0.544 2.973-0.289 0.747-0.635 1.28-1.194 1.842-0.559 0.559-1.091 0.908-1.838 1.2-0.563 0.22-1.41 0.482-2.968 0.556-1.687 0.079-2.193 0.097-6.465 0.105-4.271 0.008-4.777-0.008-6.464-0.081zM9.374 0.111c-1.702 0.080-2.865 0.353-3.881 0.751-1.052 0.41-1.943 0.96-2.83 1.85-0.888 0.891-1.433 1.784-1.84 2.837-0.394 1.019-0.661 2.182-0.736 3.886-0.075 1.707-0.092 2.251-0.083 6.596s0.027 4.89 0.109 6.597c0.081 1.702 0.353 2.864 0.751 3.881 0.411 1.052 0.96 1.943 1.851 2.831s1.784 1.432 2.838 1.84c1.018 0.393 2.181 0.661 3.884 0.736 1.707 0.075 2.251 0.092 6.595 0.083 4.346-0.008 4.891-0.027 6.597-0.108 1.702-0.081 2.864-0.354 3.881-0.751 1.052-0.412 1.943-0.96 2.831-1.851s1.432-1.784 1.839-2.838c0.394-1.018 0.662-2.181 0.736-3.883 0.075-1.708 0.092-2.253 0.084-6.597s-0.028-4.889-0.109-6.595c-0.081-1.703-0.354-2.865-0.751-3.882-0.411-1.052-0.959-1.942-1.85-2.83s-1.784-1.433-2.838-1.839c-1.018-0.394-2.181-0.663-3.884-0.736-1.707-0.076-2.251-0.092-6.597-0.084-4.344 0.008-4.889 0.027-6.596 0.109z"></path>
</symbol>
<symbol id="telegram" viewBox="0 0 32 32">
<path fill="currentColor" d="M29.528 4.193c-0.48-0.407-1.234-0.465-2.013-0.152h-0.001c-0.82 0.329-23.207 9.932-24.118 10.324-0.166 0.058-1.613 0.598-1.464 1.801 0.133 1.085 1.297 1.534 1.439 1.586l5.692 1.949c0.378 1.257 1.77 5.894 2.077 6.885 0.192 0.618 0.505 1.429 1.053 1.596 0.481 0.186 0.96 0.016 1.27-0.227l3.48-3.228 5.617 4.381 0.134 0.080c0.381 0.169 0.747 0.253 1.096 0.253 0.269 0 0.528-0.051 0.775-0.152 0.842-0.346 1.178-1.148 1.213-1.238l4.196-21.809c0.256-1.165-0.1-1.757-0.444-2.049zM14.080 20.48l-1.92 5.12-1.92-6.4 14.72-10.88-10.88 12.16z"></path>
</symbol>
<symbol id="cross" viewBox="0 0 32 32">
<path fill="currentColor" d="M9.326 9.342c-0.521 0.521-0.521 1.365 0 1.886l4.78 4.78-4.78 4.78c-0.521 0.521-0.521 1.365 0 1.886s1.365 0.521 1.886 0l4.78-4.78 4.78 4.78c0.521 0.521 1.365 0.521 1.886 0s0.521-1.365 0-1.886l-4.78-4.78 4.78-4.78c0.521-0.521 0.521-1.365 0-1.886s-1.365-0.521-1.886 0l-4.78 4.78-4.78-4.78c-0.521-0.521-1.365-0.521-1.886 0z"></path>
</symbol>
</defs>
</svg>
